<svg width="900" height="520" viewBox="0 0 900 520" xmlns="http://www.w3.org/2000/svg">
  <defs>
    <filter id="shadow" x="-20%" y="-20%" width="140%" height="140%">
      <feDropShadow dx="0" dy="10" stdDeviation="10" flood-color="#000" flood-opacity="0.15"/>
    </filter>
    <linearGradient id="grad1" x1="0%" y1="0%" x2="100%" y2="100%">
      <stop offset="0%" stop-color="#4d83ff"/>
      <stop offset="100%" stop-color="#22d8a0"/>
    </linearGradient>
  </defs>
  <rect x="20" y="20" width="860" height="480" rx="28" fill="#0b1120"/>
  <text x="450" y="70" text-anchor="middle" font-family="Inter, sans-serif" font-size="24" fill="#ffffff" font-weight="700">SING 多生态应用支持架构</text>
  <g filter="url(#shadow)">
    <rect x="70" y="120" width="240" height="140" rx="20" fill="#111827"/>
    <text x="190" y="150" text-anchor="middle" font-family="Inter, sans-serif" font-size="16" fill="#ffffff" font-weight="700">CisuMusic</text>
    <text x="190" y="175" text-anchor="middle" font-family="Inter, sans-serif" font-size="12" fill="#94a3b8">Web3 艺人孵化</text>
    <text x="190" y="195" text-anchor="middle" font-family="Inter, sans-serif" font-size="12" fill="#94a3b8">Incubation Platform</text>
  </g>
  <g filter="url(#shadow)">
    <rect x="590" y="120" width="240" height="140" rx="20" fill="#111827"/>
    <text x="710" y="150" text-anchor="middle" font-family="Inter, sans-serif" font-size="16" fill="#ffffff" font-weight="700">Gnos AI</text>
    <text x="710" y="175" text-anchor="middle" font-family="Inter, sans-serif" font-size="12" fill="#94a3b8">Web3 AI 音乐创作</text>
    <text x="710" y="195" text-anchor="middle" font-family="Inter, sans-serif" font-size="12" fill="#94a3b8">+ Social Platform</text>
  </g>
  <g filter="url(#shadow)">
    <rect x="320" y="180" width="260" height="180" rx="24" fill="#111827"/>
    <text x="450" y="220" text-anchor="middle" font-family="Inter, sans-serif" font-size="18" fill="#ffffff" font-weight="700">SING 生态层</text>
    <text x="450" y="245" text-anchor="middle" font-family="Inter, sans-serif" font-size="12" fill="#94a3b8">治理 / 支付 / 激励 / 代币互操作</text>
    <text x="450" y="265" text-anchor="middle" font-family="Inter, sans-serif" font-size="12" fill="#94a3b8">治理 / 支付 / 激励 / 跨平台</text>
  </g>
  <g filter="url(#shadow)">
    <rect x="70" y="320" width="240" height="140" rx="20" fill="#111827"/>
    <text x="190" y="360" text-anchor="middle" font-family="Inter, sans-serif" font-size="16" fill="#ffffff" font-weight="700">艺人 DAO</text>
    <text x="190" y="385" text-anchor="middle" font-family="Inter, sans-serif" font-size="12" fill="#94a3b8">社区治理</text>
    <text x="190" y="405" text-anchor="middle" font-family="Inter, sans-serif" font-size="12" fill="#94a3b8">粉丝参与决策</text>
  </g>
  <g filter="url(#shadow)">
    <rect x="590" y="320" width="240" height="140" rx="20" fill="#111827"/>
    <text x="710" y="360" text-anchor="middle" font-family="Inter, sans-serif" font-size="16" fill="#ffffff" font-weight="700">音乐 NFT 市场</text>
    <text x="710" y="385" text-anchor="middle" font-family="Inter, sans-serif" font-size="12" fill="#94a3b8">NFT 与收益分成</text>
    <text x="710" y="405" text-anchor="middle" font-family="Inter, sans-serif" font-size="12" fill="#94a3b8">数字资产生态</text>
  </g>
  <path d="M310 150 C 330 150 330 175 320 180" stroke="#22d8a0" stroke-width="4" stroke-linecap="round" stroke-linejoin="round" fill="none" marker-end="url(#arrow)"/>
  <path d="M560 150 C 560 160 575 175 580 180" stroke="#4d83ff" stroke-width="4" stroke-linecap="round" stroke-linejoin="round" fill="none" marker-end="url(#arrow)"/>
  <path d="M300 360 C 320 380 330 380 340 370" stroke="#86cdfd" stroke-width="4" stroke-linecap="round" stroke-linejoin="round" fill="none" marker-end="url(#arrow)"/>
  <path d="M600 360 C 580 380 570 380 560 370" stroke="#5fd3a7" stroke-width="4" stroke-linecap="round" stroke-linejoin="round" fill="none" marker-end="url(#arrow)"/>
  <defs>
    <marker id="arrow" viewBox="0 0 10 10" refX="9" refY="5" markerWidth="6" markerHeight="6" orient="auto" markerUnits="strokeWidth">
      <path d="M 0 0 L 10 5 L 0 10 L 2 5 Z" fill="#ffffff"/>
    </marker>
  </defs>
  <path d="M450,255 L463.4,291.2 L502.3,327.0 L463.4,328.8 L450,365 L436.6,328.8 L397.7,327.0 L431.2,296.6 L404.5,276.4 L450,333 Z" fill="url(#grad1)" opacity="0.12"/>
  <circle cx="450" cy="310" r="30" fill="#ffffff"/>
  <text x="450" y="316" text-anchor="middle" font-family="Inter, sans-serif" font-size="14" fill="#0f172a" font-weight="700">开放互通</text>
</svg>
