<svg width="900" height="520" viewBox="0 0 900 520" xmlns="http://www.w3.org/2000/svg">
  <defs>
    <filter id="shadow" x="-20%" y="-20%" width="140%" height="140%">
      <feDropShadow dx="0" dy="10" stdDeviation="10" flood-color="#000" flood-opacity="0.15"/>
    </filter>
    <linearGradient id="grad1" x1="0%" y1="0%" x2="100%" y2="100%">
      <stop offset="0%" stop-color="#4d83ff"/>
      <stop offset="100%" stop-color="#22d8a0"/>
    </linearGradient>
  </defs>
  <rect x="20" y="20" width="860" height="480" rx="28" fill="#0b1120"/>
  <text x="450" y="70" text-anchor="middle" font-family="Inter, sans-serif" font-size="24" fill="#ffffff" font-weight="700">SING 多生态应用支持架构</text>
  <g filter="url(#shadow)">
    <rect x="70" y="120" width="240" height="140" rx="20" fill="#111827"/>
    <text x="190" y="150" text-anchor="middle" font-family="Inter, sans-serif" font-size="16" fill="#ffffff" font-weight="700">CisuMusic</text>
    <text x="190" y="175" text-anchor="middle" font-family="Inter, sans-serif" font-size="12" fill="#94a3b8">Web3 艺人孵化</text>
    <text x="190" y="195" text-anchor="middle" font-family="Inter, sans-serif" font-size="12" fill="#94a3b8">Incubation Platform</text>
  </g>
  <g filter="url(#shadow)">
    <rect x="590" y="120" width="240" height="140" rx="20" fill="#111827"/>
    <text x="710" y="150" text-anchor="middle" font-family="Inter, sans-serif" font-size="16" fill="#ffffff" font-weight="700">Gnos AI</text>
    <text x="710" y="175" text-anchor="middle" font-family="Inter, sans-serif" font-size="12" fill="#94a3b8">Web3 AI 音乐创作</text>
    <text x="710" y="195" text-anchor="middle" font-family="Inter, sans-serif" font-size="12" fill="#94a3b8">+ Social Platform</text>
  </g>
  <g filter="url(#shadow)">
    <rect x="320" y="260" width="260" height="180" rx="24" fill="#111827"/>
    <text x="450" y="300" text-anchor="middle" font-family="Inter, sans-serif" font-size="18" fill="#ffffff" font-weight="700">SING 生态层</text>
    <text x="450" y="330" text-anchor="middle" font-family="Inter, sans-serif" font-size="12" fill="#94a3b8">治理 / 支付 / 激励 / 代币互操作</text>
    <text x="450" y="350" text-anchor="middle" font-family="Inter, sans-serif" font-size="12" fill="#94a3b8">Governance / Payments / Incentives / Cross-Platform</text>
  </g>
  <path d="M310 190 C 330 190 370 260 380 260" stroke="#22d8a0" stroke-width="4" fill="none" marker-end="url(#arrow)"/>
  <path d="M560 190 C 540 190 500 260 490 260" stroke="#4d83ff" stroke-width="4" fill="none" marker-end="url(#arrow)"/>
  <defs>
    <marker id="arrow" viewBox="0 0 10 10" refX="9" refY="5" markerWidth="6" markerHeight="6" orient="auto-start-reverse">
      <path d="M 0 0 L 10 5 L 0 10 z" fill="#ffffff"/>
    </marker>
  </defs>
  <circle cx="450" cy="410" r="55" fill="url(#grad1)" opacity="0.12"/>
  <circle cx="450" cy="410" r="30" fill="#ffffff"/>
  <text x="450" y="416" text-anchor="middle" font-family="Inter, sans-serif" font-size="14" fill="#0f172a" font-weight="700">开放互通</text>
</svg>
